HIERARCHY
ROOT Hips
{
	OFFSET 0.00000 0.00000 0.00000
	CHANNELS 6 Xposition Yposition Zposition Zrotation Yrotation Xrotation 
	JOINT LHipJoint
	{
		OFFSET 0 0 0
		CHANNELS 3 Zrotation Yrotation Xrotation
		JOINT LeftHip
		{
			OFFSET 1.64549 -1.70879 0.84566
			CHANNELS 3 Zrotation Yrotation Xrotation
			JOINT LeftKnee
			{
				OFFSET 2.24963 -6.18082 0.00000
				CHANNELS 3 Zrotation Yrotation Xrotation
				JOINT LeftAnkle
				{
					OFFSET 2.71775 -7.46697 0.00000
					CHANNELS 3 Zrotation Yrotation Xrotation
					JOINT LeftToe
					{
						OFFSET 0.18768 -0.51564 2.24737
						CHANNELS 3 Zrotation Yrotation Xrotation
						End Site
						{
							OFFSET 0.00000 -0.00000 1.15935
						}
					}
				}
			}
		}
	}
	JOINT RHipJoint
	{
		OFFSET 0 0 0
		CHANNELS 3 Zrotation Yrotation Xrotation
		JOINT RightHip
		{
			OFFSET -1.58830 -1.70879 0.84566
			CHANNELS 3 Zrotation Yrotation Xrotation
			JOINT RightKnee
			{
				OFFSET -2.25006 -6.18201 0.00000
				CHANNELS 3 Zrotation Yrotation Xrotation
				JOINT RightAnkle
				{
					OFFSET -2.72829 -7.49593 0.00000
					CHANNELS 3 Zrotation Yrotation Xrotation
					JOINT RightToe
					{
						OFFSET -0.21541 -0.59185 2.10643
						CHANNELS 3 Zrotation Yrotation Xrotation
						End Site
						{
							OFFSET -0.00000 -0.00000 1.09838
						}
					}
				}
			}
		}
	}
	JOINT lowerback
	{
		OFFSET 0 0 0
		CHANNELS 3 Zrotation Yrotation Xrotation
		JOINT Chest
		{
			OFFSET 0.03142 2.10496 -0.11038
			CHANNELS 3 Zrotation Yrotation Xrotation
			JOINT Chest2
			{
				OFFSET -0.01863 2.10897 -0.06956
				CHANNELS 3 Zrotation Yrotation Xrotation
				JOINT lowerneck
				{
					OFFSET 0 0 0
					CHANNELS 3 Zrotation Yrotation Xrotation
					JOINT Neck
					{
						OFFSET -0.02267 1.73238 0.00451
						CHANNELS 3 Zrotation Yrotation Xrotation
						JOINT Head
						{
							OFFSET -0.05808 1.54724 -0.61749
							CHANNELS 3 Zrotation Yrotation Xrotation
							End Site
							{
								OFFSET -0.01396 1.71468 -0.21082
							}
						}
					}
				}
				JOINT LeftCollar
				{
					OFFSET 0 0 0
					CHANNELS 3 Zrotation Yrotation Xrotation
					JOINT LeftShoulder
					{
						OFFSET 3.44898 0.50298 0.21920
CHANNELS 3 Zrotation Xrotation Yrotation
						JOINT LeftElbow
						{
OFFSET 0 -5.419170 -0.000000
CHANNELS 3 Zrotation Xrotation Yrotation
							JOINT LeftWrist
							{
OFFSET 0 -2.443730 0.000000
CHANNELS 3 Zrotation Xrotation Yrotation
								JOINT lhand
								{
									OFFSET 0 0 0
CHANNELS 3 Zrotation Xrotation Yrotation
									JOINT LFingers
									{
OFFSET 0 -0.727500 0.000000
CHANNELS 3 Zrotation Xrotation Yrotation
										End Site
										{
OFFSET 0 -0.586530 0.000000
										}
									}
								}
								JOINT LThumb
								{
OFFSET 0 0.000000 0.000000
CHANNELS 3 Zrotation Xrotation Yrotation
									End Site
									{
OFFSET 0 -0.595490 0.595490
									}
								}
							}
						}
					}
				}
				JOINT RightCollar
				{
					OFFSET 0 0 0
					CHANNELS 3 Zrotation Yrotation Xrotation
					JOINT RightShoulder
					{
						OFFSET -3.23015 0.55830 0.31051
CHANNELS 3 Zrotation Xrotation Yrotation
						JOINT RightElbow
						{
OFFSET 0 -5.589760 0.000140
CHANNELS 3 Zrotation Xrotation Yrotation
							JOINT RightWrist
							{
OFFSET 0 -2.480600 0.000000
CHANNELS 3 Zrotation Xrotation Yrotation
								JOINT rhand
								{
									OFFSET 0 0 0
CHANNELS 3 Zrotation Xrotation Yrotation
									JOINT RFingers
									{
OFFSET 0 -0.816010 0.000000
CHANNELS 3 Zrotation Xrotation Yrotation
										End Site
										{
OFFSET 0 -0.657890 0.000000
										}
									}
								}
								JOINT RThumb
								{
OFFSET 0 0.000000 0.000000
CHANNELS 3 Zrotation Xrotation Yrotation
									End Site
									{
OFFSET 0 -0.667930 0.667930
									}
								}
							}
						}
					}
				}
			}
		}
	}
}
MOTION
Frames: 4
Frame Time: 0.008333333333333333
1.354400 16.594400 27.862900 0.095100 7.866500 32.318600 0.000000 0.000000 0.000000 -25.928300 -6.427800 -8.094500 2.475100 9.792400 28.307100 -1.395300 24.228100 -23.391300 4.967100 13.346600 40.680300 0.000000 0.000000 0.000000 20.690500 20.787100 -54.400300 -4.591300 -12.908200 39.025900 -7.741700 -14.593400 -57.905600 -5.929800 -14.359900 44.699200 3.367400 -5.265400 -17.371600 5.048800 -7.355500 -12.550100 2.445700 -3.757700 -3.558600 -12.555100 -16.662700 -7.379400 9.191400 -22.935400 15.747500 2.285900 -10.995500 8.609800 0.000000 0.000000 0.000000 95.820700 -35.728400 1.013500 36.130400 -45.602700 15.615600 -20.494500 -6.641800 -13.189400 0.000000 0.000000 0.000000 -7.125000 0.000000 0.000000 -40.026700 39.627200 -6.589700 0.000000 0.000000 0.000000 -66.810800 -1.619400 -2.819400 -14.898500 -24.004500 -3.184500 11.214900 -3.734400 -6.666100 0.000000 0.000000 0.000000 7.125000 0.000000 -0.000000 27.003500 23.089900 16.065100
1.351700 16.607100 27.870000 0.140100 7.556300 32.513900 0.000000 0.000000 0.000000 -26.069800 -7.134600 -8.389100 2.446100 9.739200 28.136400 -0.484400 22.382200 -28.110500 5.911000 14.341500 44.623300 0.000000 0.000000 0.000000 20.741100 20.682500 -54.536400 -4.563800 -12.875100 38.902500 -7.376800 -15.555200 -57.159200 -5.674500 -14.105400 43.661100 3.339300 -5.206600 -17.084000 4.968800 -7.253100 -12.765900 2.439200 -3.711600 -3.954500 -12.477800 -16.690400 -7.338100 9.139000 -22.994000 15.853300 2.251600 -11.023300 8.628900 0.000000 -0.000000 0.000000 95.682600 -35.012600 0.460800 36.340100 -45.745700 15.765600 -20.205900 -6.914100 -13.130600 0.000000 0.000000 0.000000 -7.125000 0.000000 0.000000 -39.798200 39.614100 -6.549200 0.000000 -0.000000 0.000000 -66.752900 -1.601800 -2.310600 -15.015800 -24.168100 -3.232400 11.027200 -4.127600 -7.044800 0.000000 0.000000 0.000000 7.125000 0.000000 -0.000000 26.802900 22.754400 16.152300
1.350200 16.617500 27.882200 0.298300 7.263700 32.754700 0.000000 0.000000 0.000000 -26.214800 -7.600000 -8.789400 2.402200 9.657900 27.875700 -0.044500 22.420000 -31.314500 6.274000 14.688700 46.071800 0.000000 0.000000 0.000000 20.983200 20.144400 -54.933000 -4.575700 -12.889400 38.955700 -6.564000 -17.681100 -55.561500 -5.092400 -13.487100 41.220200 3.111100 -5.194900 -16.913200 4.996000 -7.188400 -13.077900 2.644800 -3.666500 -4.358000 -12.570700 -16.576000 -7.181100 8.909200 -22.831500 16.172500 2.223200 -10.971300 8.674000 -0.000000 0.000000 0.000000 95.304600 -34.809700 -0.145900 36.514400 -45.863700 15.890500 -19.777700 -7.030000 -13.497900 0.000000 0.000000 0.000000 -7.125000 0.000000 0.000000 -39.687500 39.971200 -6.077200 -0.000000 0.000000 0.000000 -67.075700 -1.320400 -0.952100 -15.225400 -24.459200 -3.318700 10.575900 -5.172600 -6.938100 0.000000 0.000000 0.000000 7.125000 0.000000 -0.000000 26.533600 22.870400 15.866500
1.347200 16.624900 27.891400 0.429300 7.068600 32.948400 0.000000 0.000000 0.000000 -26.275600 -7.970000 -9.031000 2.360100 9.579000 27.623900 0.099900 22.832900 -32.802600 6.533500 14.926100 47.087100 0.000000 0.000000 0.000000 20.583500 20.475500 -55.047900 -4.577900 -12.892100 38.965800 -6.566400 -17.849100 -55.652500 -5.057200 -13.447900 41.069200 2.936300 -5.124200 -17.063800 4.985800 -7.079500 -13.107600 2.730400 -3.600000 -4.294500 -12.987300 -16.594100 -6.701800 9.234400 -22.891200 15.882500 2.410100 -11.020900 8.591800 -0.000000 0.000000 0.000000 95.265500 -34.760900 -0.334200 36.580700 -45.908400 15.938200 -19.679700 -7.140200 -13.349000 0.000000 0.000000 0.000000 -7.125000 0.000000 0.000000 -39.543700 39.859800 -6.181900 -0.000000 0.000000 0.000000 -67.156200 -1.383700 -1.874900 -15.144100 -24.346500 -3.285100 10.896800 -4.348000 -7.358500 0.000000 0.000000 0.000000 7.125000 0.000000 -0.000000 26.654200 22.474800 16.235900
